<svg width="659" height="268" viewBox="0 0 659 268" fill="none" xmlns="http://www.w3.org/2000/svg">
<path d="M1.19442 95.969C0.668554 96.1377 0.379067 96.7008 0.547833 97.2267C0.7166 97.7526 1.27971 98.0421 1.80558 97.8733L1.19442 95.969ZM569 39.4211L568.534 40.3061L569 39.4211ZM619.5 266.921C619.5 267.474 619.948 267.921 620.5 267.921H629.5C630.052 267.921 630.5 267.474 630.5 266.921C630.5 266.369 630.052 265.921 629.5 265.921H621.5V257.921C621.5 257.369 621.052 256.921 620.5 256.921C619.948 256.921 619.5 257.369 619.5 257.921V266.921ZM1.80558 97.8733C73.5592 74.8454 169.937 36.6365 271.136 16.0885C372.32 -4.45629 478.086 -7.28541 568.534 40.3061L569.466 38.5362C478.414 -9.37255 372.096 -6.45168 270.739 14.1285C169.396 34.7056 72.7741 72.9969 1.19442 95.969L1.80558 97.8733ZM568.534 40.3061C603.652 58.7839 626.002 80.5019 639.4 103.052C652.797 125.601 657.278 149.042 656.564 171.023C655.85 193.013 649.937 213.54 642.547 230.223C635.152 246.919 626.307 259.7 619.793 266.214L621.207 267.628C627.943 260.893 636.911 247.885 644.376 231.033C651.846 214.168 657.839 193.387 658.563 171.088C659.288 148.781 654.738 124.952 641.119 102.031C627.501 79.1096 604.85 57.1545 569.466 38.5362L568.534 40.3061Z" fill="black"/>
</svg>
